<svg xmlns="http://www.w3.org/2000/svg" width="39" height="24" viewBox="0 0 39 24">
  <path id="Union_2" data-name="Union 2" d="M38.308,24a.666.666,0,0,1-.666-.667c0-2.832-6.395-5.861-15.987-5.995V22a2,2,0,0,1-2,2,1.971,1.971,0,0,1-1.345-.535s-8.427-7.8-10.85-10.234a1.873,1.873,0,0,1,0-2.461C9.885,8.337,18.311.535,18.311.535A1.971,1.971,0,0,1,19.656,0a2,2,0,0,1,2,2V6.677C31.2,7,38.865,14.245,38.973,23.141a.676.676,0,0,1,.027.192.666.666,0,0,1-.666.667h-.026ZM3.545,16.522A43.142,43.142,0,0,0,.461,13.23a1.873,1.873,0,0,1,0-2.461C2.885,8.337,11.311.535,11.311.535A1.972,1.972,0,0,1,12.657,0a2,2,0,0,1,2,2L4.39,12l2.5,3.058a2,2,0,0,1-2,2A1.972,1.972,0,0,1,3.545,16.522Z" fill="rgba(51,51,51,0.4)"/>
</svg>
