<svg xmlns="http://www.w3.org/2000/svg" width="32" height="24" viewBox="0 0 32 24">
  <g id="_482964" data-name="482964" transform="translate(0 -180)">
    <g id="Group_24" data-name="Group 24" transform="translate(0 180)">
      <path id="Path_17" data-name="Path 17" d="M31.973,203.141c-.108-8.9-7.776-16.14-17.318-16.464V182a2,2,0,0,0-2-2,1.974,1.974,0,0,0-1.345.535S2.884,188.337.461,190.77a1.873,1.873,0,0,0,0,2.46c2.424,2.432,10.851,10.234,10.851,10.234a1.974,1.974,0,0,0,1.345.535,2,2,0,0,0,2-2v-4.662c9.592.135,15.987,3.163,15.987,6a.666.666,0,0,0,.666.667.114.114,0,0,0,.026,0,.669.669,0,0,0,.639-.858Z" transform="translate(0 -180)" fill="rgba(51,51,51,0.4)"/>
    </g>
  </g>
</svg>
