<svg xmlns="http://www.w3.org/2000/svg" width="20" height="20" viewBox="0 0 20 20">
  <g id="Union_1" data-name="Union 1" fill="#fff" stroke-linejoin="round">
    <path d="M 19.0497989654541 19.0497989654541 L 11.94979953765869 19.0497989654541 L 11.94979953765869 11.94979953765869 L 19.0497989654541 11.94979953765869 L 19.0497989654541 19.0497989654541 Z M 8.050000190734863 19.0497989654541 L 0.9499998688697815 19.0497989654541 L 0.9499998688697815 11.94979953765869 L 8.050000190734863 11.94979953765869 L 8.050000190734863 19.0497989654541 Z M 19.0497989654541 8.050000190734863 L 11.94979953765869 8.050000190734863 L 11.94979953765869 0.9499998688697815 L 19.0497989654541 0.9499998688697815 L 19.0497989654541 8.050000190734863 Z M 8.050000190734863 8.050000190734863 L 0.9499998688697815 8.050000190734863 L 0.9499998688697815 0.9499998688697815 L 8.050000190734863 0.9499998688697815 L 8.050000190734863 8.050000190734863 Z" stroke="none"/>
    <path d="M 18.09980010986328 18.09980010986328 L 18.09980010986328 12.89980030059814 L 12.89980030059814 12.89980030059814 L 12.89980030059814 18.09980010986328 L 18.09980010986328 18.09980010986328 M 7.099999904632568 18.09980010986328 L 7.099999904632568 12.89980030059814 L 1.899999856948853 12.89980030059814 L 1.899999856948853 18.09980010986328 L 7.099999904632568 18.09980010986328 M 18.09980010986328 7.099999904632568 L 18.09980010986328 1.899999856948853 L 12.89980030059814 1.899999856948853 L 12.89980030059814 7.099999904632568 L 18.09980010986328 7.099999904632568 M 7.099999904632568 7.099999904632568 L 7.099999904632568 1.899999856948853 L 1.899999856948853 1.899999856948853 L 1.899999856948853 7.099999904632568 L 7.099999904632568 7.099999904632568 M 19.99979972839355 19.99979972839355 L 10.99979972839355 19.99979972839355 L 10.99979972839355 10.99979972839355 L 19.99979972839355 10.99979972839355 L 19.99979972839355 19.99979972839355 Z M 9 19.99979972839355 L -1.358032193365943e-07 19.99979972839355 L -1.358032193365943e-07 10.99979972839355 L 9 10.99979972839355 L 9 19.99979972839355 Z M 19.99979972839355 9 L 10.99979972839355 9 L 10.99979972839355 -1.358032193365943e-07 L 19.99979972839355 -1.358032193365943e-07 L 19.99979972839355 9 Z M 9 9 L -1.358032193365943e-07 9 L -1.358032193365943e-07 -1.358032193365943e-07 L 9 -1.358032193365943e-07 L 9 9 Z" stroke="none" fill="#707070"/>
  </g>
</svg>
